<svg xmlns="http://www.w3.org/2000/svg" width="40" height="40" viewBox="0 0 40 40">
  <g id="Group_31241" data-name="Group 31241" transform="translate(-84.17 -207.946)">
    <path id="Path_5763" data-name="Path 5763" d="M124.17,227.946A20,20,0,1,0,101.045,247.7V233.727H95.967v-5.781h5.078V223.54c0-5.012,2.986-7.781,7.554-7.781a30.759,30.759,0,0,1,4.477.391v4.922h-2.522c-2.484,0-3.259,1.542-3.259,3.123v3.752h5.547l-.887,5.781H107.3V247.7A20.005,20.005,0,0,0,124.17,227.946Z" transform="translate(0 0)" fill="#ff0566"/>
    <path id="Path_5764" data-name="Path 5764" d="M139.972,252.282l.887-5.781h-5.547v-3.752c0-1.582.775-3.123,3.259-3.123h2.522V234.7a30.76,30.76,0,0,0-4.477-.391c-4.568,0-7.554,2.769-7.554,7.781V246.5h-5.078v5.781h5.078v13.976a20.217,20.217,0,0,0,6.25,0V252.282Z" transform="translate(-28.017 -18.555)" fill="#fff"/>
  </g>
</svg>
