<svg xmlns="http://www.w3.org/2000/svg" width="40" height="40" viewBox="0 0 40 40">
  <g id="Group_31242" data-name="Group 31242" transform="translate(-756.665 -404.964)">
    <circle id="Ellipse_1196" data-name="Ellipse 1196" cx="20" cy="20" r="20" transform="translate(756.665 404.964)" fill="#ff0566"/>
    <g id="Group_31194" data-name="Group 31194" transform="translate(765.123 412.253)">
      <g id="Group_31193" data-name="Group 31193" transform="translate(0 0)">
        <path id="Path_5739" data-name="Path 5739" d="M818.206,457.269c.328-.369.6-.744.937-1.062a5.139,5.139,0,0,1,3.7-1.459,8.545,8.545,0,0,1,2.324.283,4.543,4.543,0,0,1,3.226,3.393,14.21,14.21,0,0,1,.43,3.887c0,2.763-.008,5.526,0,8.289,0,.259-.072.327-.326.324q-2.135-.017-4.27,0c-.25,0-.3-.076-.3-.312q.012-3.944,0-7.887a7.094,7.094,0,0,0-.229-1.958,2.2,2.2,0,0,0-2.421-1.716,2.646,2.646,0,0,0-2.781,2.641,9.793,9.793,0,0,0-.076,1.233c0,2.557,0,5.113.007,7.67,0,.255-.063.33-.323.328q-2.15-.019-4.3,0c-.23,0-.3-.06-.3-.293q.009-7.592,0-15.185c0-.25.082-.308.318-.307q2.042.015,4.084,0c.251,0,.315.079.31.316C818.2,456.058,818.206,456.664,818.206,457.269Z" transform="translate(-805.116 -447.287)" fill="#fefefe"/>
        <path id="Path_5740" data-name="Path 5740" d="M791.395,463.977c0,2.5,0,5.008.006,7.513,0,.278-.068.362-.356.359-1.422-.016-2.846-.012-4.268,0-.228,0-.3-.055-.3-.291q.01-7.605,0-15.211c0-.209.051-.285.273-.283,1.443.009,2.887.012,4.33,0,.277,0,.315.1.315.343Q791.389,460.189,791.395,463.977Z" transform="translate(-786.104 -448.21)" fill="#fefefe"/>
        <path id="Path_5741" data-name="Path 5741" d="M790.894,432.393a2.842,2.842,0,1,1-2.838-2.828A2.852,2.852,0,0,1,790.894,432.393Z" transform="translate(-785.21 -429.565)" fill="#fefefe"/>
      </g>
    </g>
  </g>
</svg>
