<svg xmlns="http://www.w3.org/2000/svg" width="40" height="40" viewBox="0 0 40 40">
  <g id="Group_31243" data-name="Group 31243" transform="translate(-532.5 -207.945)">
    <circle id="Ellipse_1188" data-name="Ellipse 1188" cx="20" cy="20" r="20" transform="translate(532.5 207.946)" fill="#ff0566"/>
    <g id="Group_31176" data-name="Group 31176" transform="translate(539.907 215.353)">
      <g id="Group_31175" data-name="Group 31175" transform="translate(0)">
        <path id="Path_5730" data-name="Path 5730" d="M570.093,235.215c3.362,0,3.76.013,5.089.073a6.975,6.975,0,0,1,2.338.434,4.17,4.17,0,0,1,2.39,2.39,6.97,6.97,0,0,1,.434,2.338c.061,1.328.073,1.726.073,5.089s-.013,3.761-.073,5.089a6.968,6.968,0,0,1-.434,2.338,4.169,4.169,0,0,1-2.39,2.39,6.967,6.967,0,0,1-2.338.434c-1.328.06-1.726.073-5.089.073s-3.761-.013-5.089-.073a6.966,6.966,0,0,1-2.338-.434,4.169,4.169,0,0,1-2.39-2.39,6.972,6.972,0,0,1-.434-2.338c-.06-1.328-.073-1.726-.073-5.089s.013-3.761.073-5.088a6.976,6.976,0,0,1,.434-2.339,4.17,4.17,0,0,1,2.39-2.39,6.974,6.974,0,0,1,2.338-.434c1.328-.06,1.726-.073,5.089-.073m0-2.269c-3.42,0-3.849.015-5.192.076a9.243,9.243,0,0,0-3.057.585,6.439,6.439,0,0,0-3.683,3.683,9.248,9.248,0,0,0-.585,3.057c-.061,1.343-.076,1.772-.076,5.192s.015,3.849.076,5.192a9.246,9.246,0,0,0,.585,3.057,6.439,6.439,0,0,0,3.683,3.683,9.245,9.245,0,0,0,3.057.585c1.343.061,1.772.076,5.192.076s3.849-.015,5.192-.076a9.244,9.244,0,0,0,3.057-.585,6.439,6.439,0,0,0,3.683-3.683,9.243,9.243,0,0,0,.585-3.057c.061-1.343.076-1.772.076-5.192s-.015-3.849-.076-5.192a9.245,9.245,0,0,0-.585-3.057,6.439,6.439,0,0,0-3.683-3.683,9.242,9.242,0,0,0-3.057-.585c-1.343-.061-1.772-.076-5.192-.076Z" transform="translate(-557.5 -232.946)" fill="#fff"/>
        <path id="Path_5731" data-name="Path 5731" d="M584.642,253.622a6.466,6.466,0,1,0,6.466,6.466A6.466,6.466,0,0,0,584.642,253.622Zm0,10.664a4.2,4.2,0,1,1,4.2-4.2A4.2,4.2,0,0,1,584.642,264.286Z" transform="translate(-572.05 -247.496)" fill="#fff"/>
        <circle id="Ellipse_1189" data-name="Ellipse 1189" cx="1.511" cy="1.511" r="1.511" transform="translate(17.803 4.36)" fill="#fff"/>
      </g>
    </g>
  </g>
</svg>
